<svg width="100" height="20" viewBox="0 0 100 20" fill="none" xmlns="http://www.w3.org/2000/svg">
<path d="M26.7032 8.8437C26.7032 8.33319 26.6986 7.85577 26.6892 7.41144C26.6892 6.95765 26.6799 6.55113 26.6612 6.19188C26.6519 5.83264 26.6378 5.53011 26.6192 5.28431C26.6005 5.02906 26.5818 4.61368 26.5631 4.50968C26.6178 4.50969 26.706 4.50968 26.8368 4.50968C26.9769 4.50968 27.0811 4.50968 27.1652 4.50968C27.324 4.50968 27.4896 4.5097 27.6578 4.5097C27.8259 4.50024 27.9862 4.50969 28.0409 4.50968C28.0129 4.77439 27.9643 5.4923 27.9363 6.22025C27.9176 6.93874 27.9083 7.79904 27.9083 8.80116V11.2403C27.9083 11.9588 27.9083 12.5307 27.9083 12.9561C27.9176 13.3816 27.9223 13.7077 27.9223 13.9346C27.9316 14.1615 27.941 14.3128 27.9503 14.3884C27.969 14.464 27.9877 14.5066 28.0063 14.516C28.0717 14.5633 28.1838 14.5964 28.3426 14.6153C28.4827 14.6342 28.6696 14.6484 28.9031 14.6578C29.146 14.6578 29.4169 14.6578 29.7158 14.6578C30.1081 14.6578 30.4397 14.6531 30.7106 14.6437C30.9909 14.6247 31.2244 14.6011 31.4112 14.5728C31.5981 14.5444 31.7522 14.516 31.8736 14.4877C31.9951 14.4499 32.0978 14.412 32.1819 14.3742C32.1539 14.4404 32.1212 14.5255 32.0838 14.6295C32.0558 14.724 32.0278 14.828 31.9997 14.9415C31.9717 15.0454 31.9437 15.1447 31.9157 15.2393C31.8876 15.3338 31.8817 15.4351 31.8723 15.4918C31.8176 15.4918 31.7561 15.4918 31.6534 15.4918C31.5439 15.4918 31.3365 15.4945 31.0189 15.4945C30.5051 15.4945 30.0753 15.4918 29.683 15.4918C29.2998 15.4918 28.941 15.4918 28.643 15.4918C28.3693 15.4918 28.0911 15.4918 27.8767 15.4918C27.6578 15.4918 27.4428 15.4918 27.2747 15.4918C27.1159 15.4918 27.0036 15.4918 26.8915 15.4918C26.7794 15.4918 26.7273 15.4918 26.6178 15.4918C26.6272 15.3689 26.6238 15.1258 26.6332 14.8705C26.6519 14.6153 26.6659 14.3128 26.6752 13.963C26.6845 13.6037 26.6892 13.2019 26.6892 12.7576C26.6986 12.3133 26.7032 11.8406 26.7032 11.3395V8.8437Z" fill="#E6E6E6"/>
<path d="M36.5606 4.5055C36.6155 4.5055 36.7319 4.5055 36.8349 4.5055C36.9473 4.5055 37.0062 4.5055 37.1092 4.5055C37.3058 4.5055 37.508 4.50551 37.6578 4.50551C37.8224 4.5055 37.9321 4.5055 38.0212 4.5055C38.0025 4.61945 37.9884 4.80462 37.979 5.06102C37.9697 5.30792 37.9556 5.61654 37.9369 5.98689C37.9276 6.34774 37.9182 6.75607 37.9088 7.21188C37.9088 7.6582 37.9088 8.133 37.9088 8.63629V10.6162C37.9088 11.091 37.9322 11.4994 37.979 11.8412C38.0259 12.1736 38.0914 12.4632 38.1757 12.7101C38.2693 12.9475 38.3769 13.1517 38.4987 13.3226C38.6204 13.4935 38.7561 13.6502 38.9059 13.7927C39.0744 13.9541 39.2523 14.0823 39.4396 14.1773C39.6268 14.2722 39.8141 14.3482 40.0013 14.4052C40.1886 14.4526 40.3758 14.4859 40.5631 14.5049C40.7503 14.5239 40.9282 14.5334 41.0967 14.5334C41.4151 14.5334 41.7661 14.4811 42.15 14.3767C42.5339 14.2722 42.8615 14.0681 43.1331 13.7642C43.4888 13.3843 43.7229 12.919 43.8352 12.3683C43.9569 11.8175 44.0178 11.1338 44.0178 10.3171V8.63629C44.0178 8.1235 44.0131 7.6487 44.0038 7.21188C43.9944 6.76557 43.9804 6.36673 43.9616 6.01538C43.9523 5.65452 43.9382 5.35065 43.9195 5.10375C43.9008 4.84736 43.8755 4.63844 43.8567 4.5055C43.9116 4.50549 44.0187 4.5055 44.131 4.5055C44.2434 4.5055 44.3304 4.5055 44.4053 4.5055C44.5551 4.5055 44.7345 4.50549 44.8442 4.5055C44.9539 4.50549 45.0636 4.50549 45.0992 4.5055C45.0804 4.61945 45.0617 4.80462 45.043 5.06102C45.0336 5.30792 45.0243 5.61654 45.0149 5.98689C45.0055 6.34774 44.9962 6.75607 44.9868 7.21188C44.9775 7.6582 44.9728 8.133 44.9728 8.63629V10.2886C44.9728 10.7064 44.9587 11.1148 44.9306 11.5136C44.9026 11.9124 44.8417 12.297 44.7481 12.6674C44.6544 13.0282 44.5187 13.3701 44.3408 13.693C44.1629 14.0158 43.9289 14.3102 43.6386 14.5761C43.4233 14.766 43.1986 14.9227 42.9645 15.0461C42.7305 15.1601 42.4871 15.2456 42.2343 15.3025C41.9908 15.369 41.7474 15.4117 41.504 15.4307C41.2606 15.4592 41.0218 15.4735 40.7878 15.4735C40.3009 15.4735 39.7907 15.4023 39.257 15.2598C38.7327 15.1269 38.2786 14.88 37.8948 14.5191C37.7169 14.3482 37.5531 14.1583 37.4033 13.9494C37.2628 13.7404 37.1364 13.4935 37.0241 13.2087C36.9211 12.9238 36.8415 12.5914 36.7853 12.2116C36.7292 11.8317 36.7011 11.3854 36.7011 10.8726V8.63629C36.7011 8.1235 36.6964 7.6392 36.687 7.18339C36.687 6.72758 36.6777 6.31925 36.6589 5.9584C36.6496 5.58805 36.6355 5.27943 36.6168 5.03253C36.5981 4.77614 36.5794 4.59096 36.5606 4.5055Z" fill="#E6E6E6"/>
<path d="M50.7368 15.4735C50.6273 15.4735 50.5571 15.4735 50.4631 15.4735C50.3691 15.4735 50.2928 15.4735 50.1894 15.4735C50.1518 15.4735 50.091 15.4735 50.0252 15.4735C49.9705 15.4735 49.8815 15.4735 49.8063 15.4735C49.7516 15.4735 49.6531 15.4735 49.5874 15.4735C49.5326 15.4735 49.5061 15.4735 49.4779 15.4735C49.4967 15.2741 49.5108 14.9464 49.5202 14.4906C49.539 14.0348 49.5531 13.503 49.5625 12.8953C49.5813 12.278 49.5907 11.6228 49.5907 10.9296C49.6001 10.2269 49.6048 9.53367 49.6048 8.84995C49.6142 8.15674 49.6189 7.50626 49.6189 6.89851C49.6283 6.29076 49.6329 5.77322 49.6329 5.3459C49.6329 5.15597 49.6329 5.00404 49.6329 4.89008C49.6423 4.77613 49.6517 4.69067 49.6611 4.63369C49.6705 4.57671 49.6799 4.54348 49.6893 4.53398C49.7081 4.51499 49.7269 4.50549 49.7457 4.50549C49.7739 4.50549 49.8209 4.53873 49.8867 4.6052C49.9525 4.66218 50.0558 4.76189 50.1968 4.90433C50.4223 5.14173 50.7324 5.48834 51.1271 5.94415C51.5312 6.39047 51.9729 6.88901 52.4521 7.43978C52.9408 7.99056 53.4482 8.56507 53.9745 9.16332C54.5007 9.76158 54.9988 10.3313 55.4686 10.8726C55.9385 11.4044 56.3614 11.8745 56.7373 12.2828C57.1131 12.6911 57.3951 12.9808 57.583 13.1517C57.5736 12.7718 57.5642 12.335 57.5548 11.8412C57.5548 11.3379 57.5501 10.8156 57.5407 10.2744C57.5407 9.73309 57.536 9.18706 57.5266 8.63629C57.5172 8.08552 57.5078 7.56323 57.4984 7.06944C57.489 6.56614 57.4749 6.11508 57.4561 5.71624C57.4467 5.30791 57.4256 4.76189 57.4068 4.50549C57.4619 4.5055 57.5787 4.50549 57.6821 4.50549C57.7855 4.50549 57.8634 4.50549 57.9574 4.50549C58.089 4.50549 58.2327 4.5055 58.3979 4.5055C58.5631 4.50549 58.6182 4.50549 58.6732 4.50549C58.6544 4.7239 58.6308 5.27942 58.612 5.77322C58.5932 6.26702 58.5744 6.84153 58.5556 7.49676C58.5462 8.15199 58.5368 8.85945 58.5274 9.61914C58.518 10.3693 58.5133 11.1053 58.5133 11.827C58.5133 12.4347 58.5133 12.9238 58.5133 13.2941C58.5227 13.6645 58.5274 14.0111 58.5274 14.3339C58.5274 14.6378 58.5227 14.88 58.5133 15.0604C58.5133 15.2408 58.508 15.1886 58.508 15.2442C58.4986 15.3392 58.4692 15.403 58.4543 15.4181C58.3996 15.4735 58.3996 15.4735 58.3448 15.4735C58.2978 15.4735 58.1226 15.3927 57.9617 15.2519C57.7427 15.0604 57.6723 15.0129 57.287 14.6046C57.0896 14.4052 56.8218 14.1155 56.4835 13.7357C56.1546 13.3558 55.7834 12.9285 55.37 12.4537C54.9659 11.9789 54.5383 11.4756 54.0872 10.9438C53.6362 10.4121 53.1898 9.89452 52.7481 9.39123C52.3159 8.88794 51.9118 8.42263 51.5359 7.9953C51.16 7.55848 50.8405 7.19763 50.5774 6.91275C50.5868 7.68193 50.5962 8.50809 50.6056 9.39123C50.615 10.2649 50.6244 11.1053 50.6338 11.9124C50.6525 12.7196 50.6713 13.4413 50.6901 14.0775C50.7089 14.7138 50.7086 15.1886 50.7368 15.4735Z" fill="#E6E6E6"/>
<path d="M77.0129 8.70508C77.0129 8.18555 77.0082 7.69969 76.9989 7.2475C76.9989 6.79531 76.9896 6.39123 76.9709 6.03525C76.9616 5.66965 76.9476 5.35697 76.9289 5.0972C76.9103 4.83743 76.8823 4.62097 76.845 4.50552C76.9543 4.50552 77.0796 4.50552 77.1729 4.50552C77.2756 4.50552 77.3983 4.50551 77.5009 4.50551C77.5662 4.50551 77.6703 4.50549 77.8289 4.50549C77.9929 4.50552 78.1568 4.50552 78.3208 4.5055C78.4848 4.50552 78.6902 4.50552 78.8675 4.50552C79.0314 4.50552 79.2145 4.50551 79.3358 4.50551C79.8116 4.50551 80.264 4.54399 80.6932 4.62096C81.1223 4.69793 81.4861 4.83262 81.7847 5.02504C82.1485 5.26557 82.447 5.59268 82.6803 6.00639C82.9135 6.41047 83.0301 6.87228 83.0301 7.39181C83.0301 8.63293 82.461 9.65757 81.3229 10.4657C81.7707 11.0815 82.2418 11.7261 82.7362 12.3996C83.2307 13.073 83.7204 13.6792 84.2055 14.2179C84.5041 14.5547 84.7606 14.8192 84.9752 15.0117C85.1898 15.2041 85.3623 15.3292 85.493 15.3869C85.3997 15.4254 85.2644 15.4494 85.0871 15.459C84.9192 15.4687 84.7513 15.4735 84.5834 15.4735C84.4248 15.4735 84.2802 15.459 84.1496 15.4302C84.0283 15.4109 83.907 15.3725 83.7857 15.3147C83.6738 15.2474 83.5572 15.1608 83.4359 15.055C83.3146 14.9491 83.184 14.8192 83.0441 14.6653C82.8482 14.4633 82.6289 14.2035 82.3864 13.886C82.1438 13.5589 81.8966 13.2173 81.6447 12.8614C81.3928 12.5054 81.1503 12.159 80.9171 11.8223C80.6838 11.4856 80.4879 11.2066 80.3293 10.9853C80.2734 10.9179 80.2127 10.8842 80.1474 10.8842C80.0728 10.8842 79.9608 10.8842 79.8116 10.8842C79.6623 10.8842 79.4944 10.8842 79.3078 10.8842C79.1306 10.8842 78.944 10.8842 78.7481 10.8842C78.5522 10.8746 78.3796 10.8698 78.2303 10.8698C78.2023 10.8698 78.1883 10.8987 78.1883 10.9564V11.4038C78.1883 11.856 78.1883 12.2937 78.1883 12.7171C78.1977 13.1308 78.207 13.5108 78.2163 13.8571C78.235 14.2035 78.249 14.5114 78.2583 14.7808C78.277 15.0501 78.3041 15.3196 78.3228 15.4735C78.268 15.4735 78.1611 15.4735 78.0491 15.4735C77.9372 15.4735 77.842 15.4735 77.7207 15.4735C77.5901 15.4735 77.4053 15.4735 77.2281 15.4735C77.0639 15.4735 76.8997 15.4735 76.845 15.4735C76.8636 15.3484 76.9103 15.1079 76.9289 14.8385C76.9476 14.5595 76.9616 14.2324 76.9709 13.8571C76.9896 13.4819 76.9989 13.073 76.9989 12.6305C77.0082 12.1783 77.0129 11.7165 77.0129 11.245V8.70508ZM78.1883 9.88847C78.1883 9.96544 78.2023 10.0087 78.2303 10.0184C78.3703 10.0472 78.5988 10.0713 78.916 10.0905C79.2332 10.1098 79.5784 10.1194 79.9515 10.1194C80.1568 10.1194 80.32 10.1098 80.4413 10.0905C80.5626 10.0616 80.6698 10.0135 80.7631 9.9462C81.043 9.73453 81.2902 9.4459 81.5048 9.0803C81.7194 8.70508 81.8266 8.25771 81.8266 7.73817C81.8266 6.96849 81.6028 6.36717 81.155 5.93423C80.7072 5.49166 80.0775 5.27038 79.2658 5.27038C79.0513 5.27038 78.8507 5.27519 78.6641 5.28481C78.4869 5.29443 78.3469 5.30886 78.2443 5.3281C78.207 5.33772 78.1883 5.3714 78.1883 5.42912V9.88847Z" fill="#E6E6E6"/>
<path d="M65.6795 11.6845C65.6421 11.6845 65.6186 11.6988 65.6093 11.7273C65.4969 12.0406 65.3751 12.3777 65.2439 12.7386C65.1222 13.0995 65.0004 13.4556 64.8786 13.8069C64.7662 14.1583 64.6585 14.4811 64.5554 14.7755C64.4618 15.0604 64.403 15.3025 64.3656 15.4735C64.3108 15.4735 64.2216 15.4735 64.1466 15.4735C64.0717 15.4735 63.9681 15.4735 63.8182 15.4735C63.6777 15.4735 63.5446 15.4735 63.3804 15.4735C63.2162 15.4735 63.1067 15.4735 63.052 15.4735C63.2299 15.0936 63.4454 14.6093 63.6983 14.0206C63.9512 13.4223 64.2182 12.7766 64.4992 12.0834L67.2814 5.0895C67.3657 4.88059 67.4265 4.7334 67.464 4.64793C67.5109 4.55297 67.5577 4.50549 67.6045 4.50549C67.642 4.50549 67.6795 4.54348 67.7169 4.61945C67.7638 4.69541 67.8387 4.8521 67.9418 5.0895C67.9792 5.17497 68.087 5.42661 68.2649 5.84444C68.4429 6.25277 68.6584 6.76081 68.9113 7.36856C69.1736 7.96682 69.4593 8.63154 69.7684 9.36274C70.0775 10.0844 70.382 10.8061 70.6817 11.5278C70.841 11.9077 71.0049 12.3018 71.1735 12.7101C71.3421 13.1089 71.5061 13.4935 71.6653 13.8639C71.8339 14.2247 71.9838 14.5476 72.1149 14.8325C72.2555 15.1079 72.3726 15.331 72.4662 15.4735C72.3568 15.4735 72.1926 15.4735 72.0831 15.4735C71.9707 15.4735 71.8844 15.4735 71.8094 15.4735C71.6314 15.4735 71.4401 15.4735 71.2621 15.4735C71.0979 15.4735 70.9884 15.4735 70.9065 15.4735C70.8503 15.312 70.7614 15.0794 70.6396 14.7755C70.5272 14.4716 70.4007 14.144 70.2602 13.7927C70.1197 13.4318 69.9745 13.071 69.8246 12.7101C69.6841 12.3398 69.553 12.0121 69.4312 11.7273C69.4124 11.6988 69.3937 11.6845 69.375 11.6845H65.6795ZM69.0799 10.8584C69.108 10.8584 69.1174 10.8394 69.108 10.8014L67.45 6.65636L65.9184 10.8014C65.909 10.8394 65.9184 10.8584 65.9465 10.8584H69.0799Z" fill="#E6E6E6"/>
<path d="M92.4992 11.6845C92.4618 11.6845 92.4384 11.6988 92.429 11.7273C92.3166 12.0406 92.1948 12.3777 92.0637 12.7386C91.9419 13.0995 91.8201 13.4556 91.6983 13.8069C91.5859 14.1583 91.4782 14.4811 91.3752 14.7755C91.2815 15.0604 91.2228 15.3025 91.1853 15.4735C91.1306 15.4735 91.0413 15.4735 90.9664 15.4735C90.8914 15.4735 90.7878 15.4735 90.638 15.4735C90.4974 15.4735 90.3643 15.4735 90.2001 15.4735C90.0359 15.4735 89.9264 15.4735 89.8717 15.4735C90.0497 15.0936 90.2651 14.6093 90.518 14.0206C90.771 13.4223 91.0379 12.7766 91.3189 12.0834L94.1011 5.0895C94.1854 4.88059 94.2463 4.7334 94.2837 4.64793C94.3306 4.55297 94.3774 4.50549 94.4243 4.50549C94.4617 4.50549 94.4992 4.54348 94.5367 4.61945C94.5835 4.69541 94.6584 4.8521 94.7615 5.0895C94.799 5.17497 94.9067 5.42661 95.0847 5.84444C95.2626 6.25277 95.4781 6.76081 95.731 7.36856C95.9933 7.96682 96.279 8.63154 96.5881 9.36274C96.8973 10.0844 97.2017 10.8061 97.5014 11.5278C97.6607 11.9077 97.8246 12.3018 97.9932 12.7101C98.1619 13.1089 98.3258 13.4935 98.485 13.8639C98.6536 14.2247 98.8035 14.5476 98.9347 14.8325C99.0752 15.1079 99.1923 15.331 99.2859 15.4735C99.1765 15.4735 99.0123 15.4735 98.9028 15.4735C98.7904 15.4735 98.7041 15.4735 98.6291 15.4735C98.4512 15.4735 98.2598 15.4735 98.0818 15.4735C97.9176 15.4735 97.8081 15.4735 97.7263 15.4735C97.6701 15.312 97.5811 15.0794 97.4593 14.7755C97.3469 14.4716 97.2204 14.144 97.0799 13.7927C96.9394 13.4318 96.7942 13.071 96.6443 12.7101C96.5038 12.3398 96.3727 12.0121 96.2509 11.7273C96.2322 11.6988 96.2134 11.6845 96.1947 11.6845H92.4992ZM95.8996 10.8584C95.9277 10.8584 95.9371 10.8394 95.9277 10.8014L94.2697 6.65636L92.7381 10.8014C92.7287 10.8394 92.7381 10.8584 92.7662 10.8584H95.8996Z" fill="#E6E6E6"/>
<g clip-path="url(#clip0_2_11811)">
<path d="M13.2545 1.23684C13.0025 1.50354 12.7926 1.8077 12.632 2.13871C10.9582 1.51612 9.12887 1.46148 7.42148 1.98307C5.7141 2.50466 4.22178 3.57403 3.17084 5.02902C2.11989 6.484 1.56764 8.24524 1.59784 10.0456C1.62803 11.846 2.23902 13.5874 3.33815 15.0056L2.58608 15.7648C1.30272 14.1539 0.584681 12.1589 0.544339 10.0922C0.503997 8.02541 1.14363 6.00346 2.36313 4.34278C3.58263 2.6821 5.31318 1.47641 7.28392 0.914404C9.25467 0.352397 11.3544 0.465793 13.2545 1.23684Z" fill="#E6E6E6"/>
<path d="M19.059 9.91058C19.0602 11.6735 18.5671 13.4008 17.6368 14.8929C16.7066 16.3849 15.377 17.5809 13.8019 18.3425C12.2268 19.1041 10.4703 19.4003 8.73548 19.1969C7.00064 18.9934 5.35821 18.2987 3.99799 17.1929L4.75006 16.4337C6.16346 17.5487 7.90003 18.1651 9.69369 18.1886C11.4874 18.2121 13.2392 17.6413 14.6807 16.5637C16.1223 15.4861 17.1741 13.9611 17.6749 12.2224C18.1758 10.4838 18.0981 8.62726 17.4538 6.9374C17.7791 6.77018 18.0771 6.55359 18.3374 6.2952C18.8153 7.43942 19.0606 8.66885 19.059 9.91058Z" fill="#E6E6E6"/>
<path d="M8.84813 11.8541L1.1232 19.6517L0.997525 19.7776L0.124691 18.8965L0 18.7707L7.85453 10.8422C8.06451 11.282 8.41429 11.6382 8.84813 11.8541Z" fill="#E6E6E6"/>
<path d="M13.9045 6.75011L11.7219 8.95323C11.5079 8.51511 11.1537 8.16276 10.7166 7.95325L12.8932 5.75607C13.1611 6.15237 13.5049 6.49038 13.9045 6.75011Z" fill="#E6E6E6"/>
<path d="M19.5941 1.00692L18.8401 1.76805C18.5835 1.36486 18.2497 1.01747 17.8583 0.746268L18.5956 0L18.7203 0.125865L19.4694 0.881052L19.5941 1.00692Z" fill="#E6E6E6"/>
<path d="M9.79659 11.7797C10.1631 11.7799 10.5214 11.6704 10.8263 11.465C11.1311 11.2595 11.3687 10.9675 11.509 10.6257C11.6494 10.284 11.6862 9.90785 11.6147 9.54499C11.5433 9.18213 11.3668 8.84881 11.1076 8.58721C10.8485 8.32561 10.5183 8.14747 10.1588 8.07535C9.7993 8.00322 9.4267 8.04034 9.08813 8.18201C8.74955 8.32367 8.46021 8.56353 8.25671 8.87122C8.05321 9.17891 7.94469 9.54062 7.94489 9.91058C7.94489 10.4063 8.13998 10.8817 8.48724 11.2323C8.8345 11.5828 9.30549 11.7797 9.79659 11.7797Z" fill="url(#paint0_linear_2_11811)"/>
<path d="M18.6349 1.99699C18.6327 1.99216 18.63 1.98752 18.627 1.98311C18.38 1.57877 18.0495 1.23296 17.658 0.96926L17.6442 0.96034C17.0187 0.542068 16.2696 0.353672 15.5227 0.426753C14.7758 0.499834 14.0766 0.829947 13.5422 1.36172L13.5344 1.36965C13.2775 1.62545 13.0645 1.92251 12.904 2.24872C12.904 2.24872 12.904 2.25565 12.8991 2.25863C12.6461 2.77645 12.5318 3.35217 12.5678 3.92843C12.6038 4.50469 12.7888 5.06137 13.1043 5.543L13.1132 5.55687C13.3749 5.95157 13.7174 6.2851 14.1176 6.53505L14.1313 6.54298C14.611 6.83992 15.1584 7.00681 15.7207 7.02747C16.283 7.04813 16.8411 6.92187 17.3409 6.66091H17.3507C17.6704 6.49229 17.9606 6.27201 18.2098 6.0088L18.2166 6.00087C18.7131 5.47394 19.0232 4.79626 19.0988 4.07313C19.1744 3.35 19.0114 2.6219 18.6349 2.00194V1.99699ZM17.6727 4.989C17.4674 5.28938 17.1932 5.53521 16.8735 5.70553H16.8676C16.5674 5.8631 16.2355 5.9493 15.8972 5.95755C15.5589 5.96579 15.2232 5.89586 14.9158 5.7531L14.901 5.74617C14.4699 5.53989 14.115 5.20041 13.8878 4.77691L13.88 4.76204C13.7157 4.44825 13.6279 4.09948 13.6238 3.74462C13.6197 3.38976 13.6995 3.03902 13.8564 2.72145V2.71452C14.0184 2.38842 14.257 2.10736 14.5515 1.8959L14.5574 1.89095C14.8916 1.65078 15.2853 1.50906 15.6946 1.48159C16.1039 1.45411 16.5127 1.54197 16.8755 1.73535L16.8902 1.74328C17.3104 1.97178 17.6469 2.33025 17.8504 2.76605L17.8573 2.78092C18.0187 3.13254 18.0865 3.52053 18.0541 3.90668C18.0218 4.29282 17.8903 4.66379 17.6727 4.98305V4.989Z" fill="#E6E6E6"/>
<path d="M17.493 4.71547C17.3056 5.03155 17.0332 5.28755 16.7076 5.4538C16.597 5.2807 16.4804 5.11123 16.358 4.94539C16.2625 4.81788 16.1643 4.69333 16.0635 4.57176C15.7587 4.20889 15.4236 3.87302 15.062 3.56782C14.9416 3.46475 14.8179 3.36564 14.6909 3.2705C14.5024 3.12878 14.309 2.99499 14.1087 2.87408C14.2689 2.54311 14.5188 2.26476 14.8294 2.07132C15.0404 2.20908 15.2456 2.35674 15.445 2.51234C15.5696 2.61145 15.6924 2.71055 15.8122 2.81461C16.1706 3.12151 16.5048 3.45619 16.8116 3.81558C16.9157 3.93517 17.0159 4.05806 17.1121 4.18426C17.2456 4.3567 17.3726 4.53377 17.493 4.71547Z" fill="#E6E6E6"/>
<path d="M17.6255 2.994L16.8116 3.81559C16.505 3.45448 16.1708 3.11815 15.8121 2.80966L16.6535 1.96033C17.0951 2.16878 17.4423 2.53801 17.6255 2.994Z" fill="#E6E6E6"/>
<path d="M16.0625 4.57175L15.12 5.52218C14.6677 5.33827 14.3014 4.98797 14.095 4.54202L15.0621 3.56781C15.4233 3.87305 15.758 4.20892 16.0625 4.57175Z" fill="#E6E6E6"/>
<path d="M16.8244 3.8245C17.1366 4.18781 17.4202 4.57517 17.6727 4.98305V4.98899C17.4674 5.28937 17.1932 5.5352 16.8735 5.70553C16.6405 5.3091 16.3744 4.93345 16.0782 4.58266L14.9108 5.75607L14.8961 5.74913C14.4649 5.54286 14.1101 5.20338 13.8829 4.77988L15.0728 3.57871C14.6921 3.25733 14.2833 2.9714 13.8514 2.72442V2.71748C14.0134 2.39139 14.2521 2.11033 14.5466 1.89887C14.9974 2.16894 15.4245 2.47763 15.8229 2.82155L16.8872 1.74625C17.3074 1.97475 17.6439 2.33322 17.8474 2.76902L17.8543 2.78389L16.8244 3.8245Z" fill="#E6E6E6"/>
</g>
<defs>
<linearGradient id="paint0_linear_2_11811" x1="7.94489" y1="9.90959" x2="11.6503" y2="9.90959" gradientUnits="userSpaceOnUse">
<stop stop-color="white"/>
<stop offset="1" stop-color="#C6C6C6"/>
</linearGradient>
<clipPath id="clip0_2_11811">
<rect width="19.5941" height="19.7776" fill="white"/>
</clipPath>
</defs>
</svg>
