<svg width="24" height="24" viewBox="0 0 24 24" fill="none" xmlns="http://www.w3.org/2000/svg">
<path fill-rule="evenodd" clip-rule="evenodd" d="M11.999 14.884L14.005 15.938C14.395 16.143 14.852 15.812 14.777 15.377L14.394 13.144L16.017 11.564C16.333 11.256 16.159 10.719 15.722 10.656L13.48 10.33L12.477 8.297C12.282 7.901 11.718 7.901 11.522 8.297L10.52 10.33L8.27799 10.656C7.84099 10.719 7.66699 11.256 7.98299 11.564L9.60599 13.144L9.22299 15.377C9.14799 15.812 9.60499 16.143 9.99499 15.938L12.001 14.884H11.999V14.884Z" stroke="#5F5F5F" stroke-width="1.5" stroke-linecap="round" stroke-linejoin="round"/>
<path d="M21.5 12H20.4" stroke="#5F5F5F" stroke-width="1.5" stroke-linecap="round" stroke-linejoin="round"/>
<path d="M3.6 12H2.5" stroke="#5F5F5F" stroke-width="1.5" stroke-linecap="round" stroke-linejoin="round"/>
<path d="M18.86 5.14001L17.81 6.19001" stroke="#5F5F5F" stroke-width="1.5" stroke-linecap="round" stroke-linejoin="round"/>
<path d="M5.15997 18.89L6.21997 17.83" stroke="#5F5F5F" stroke-width="1.5" stroke-linecap="round" stroke-linejoin="round"/>
<path d="M5.14001 5.16L6.19001 6.22" stroke="#5F5F5F" stroke-width="1.5" stroke-linecap="round" stroke-linejoin="round"/>
<path d="M18.89 18.86L17.83 17.81" stroke="#5F5F5F" stroke-width="1.5" stroke-linecap="round" stroke-linejoin="round"/>
<path d="M12 20.44V21.5" stroke="#5F5F5F" stroke-width="1.5" stroke-linecap="round" stroke-linejoin="round"/>
<path d="M12 2.5V3.56" stroke="#5F5F5F" stroke-width="1.5" stroke-linecap="round" stroke-linejoin="round"/>
</svg>
